<svg width="240" height="240" viewBox="0 0 240 240" fill="none" xmlns="http://www.w3.org/2000/svg">
<path d="M122.858 63H174.286C177.443 63 180 65.5571 180 68.7142V128.713C180 131.856 177.429 134.427 174.286 134.427H122.858C119.701 134.427 117.144 131.87 117.144 128.713V68.7142C117.144 65.5714 119.716 63 122.858 63Z" fill="#35C1F1"/>
<path d="M122.858 63H174.286C177.443 63 180 65.5571 180 68.7142V77.2854H117.144V68.7142C117.144 65.5571 119.701 63 122.858 63Z" fill="#50E6FF"/>
<path d="M158.572 67.2858H170C170.789 67.2858 171.429 67.9258 171.429 68.7143V71.5714C171.429 72.3599 170.789 72.9999 170 72.9999H158.572C157.783 72.9999 157.143 72.3599 157.143 71.5714V68.7143C157.143 67.9258 157.783 67.2858 158.572 67.2858Z" fill="#35C1F1"/>
<path d="M142.144 72.2855C143.327 72.2855 144.287 71.3261 144.287 70.1427C144.287 68.9592 143.327 67.9999 142.144 67.9999C140.96 67.9999 140.001 68.9592 140.001 70.1427C140.001 71.3261 140.96 72.2855 142.144 72.2855Z" fill="white"/>
<path d="M135.001 72.2855C136.185 72.2855 137.144 71.3261 137.144 70.1427C137.144 68.9592 136.185 67.9999 135.001 67.9999C133.818 67.9999 132.858 68.9592 132.858 70.1427C132.858 71.3261 133.818 72.2855 135.001 72.2855Z" fill="white"/>
<path d="M127.858 72.2855C129.042 72.2855 130.001 71.3261 130.001 70.1427C130.001 68.9592 129.042 67.9999 127.858 67.9999C126.675 67.9999 125.715 68.9592 125.715 70.1427C125.715 71.3261 126.675 72.2855 127.858 72.2855Z" fill="white"/>
<path d="M148.572 122.998C158.829 122.998 167.143 114.684 167.143 104.427C167.143 94.171 158.829 85.8564 148.572 85.8564C138.316 85.8564 130.001 94.171 130.001 104.427C130.001 114.684 138.316 122.998 148.572 122.998Z" fill="#184F85"/>
<path d="M148.572 122.998C158.829 122.998 167.143 114.684 167.143 104.427C167.143 94.171 158.829 85.8564 148.572 85.8564C138.316 85.8564 130.001 94.171 130.001 104.427C130.001 114.684 138.316 122.998 148.572 122.998Z" stroke="url(#paint0_linear_507_283)" stroke-width="2" stroke-miterlimit="10"/>
<path d="M165.715 108.713H160C158.423 108.713 157.143 107.433 157.143 105.856V102.999C157.143 101.422 158.423 100.142 160 100.142H165.715V108.713Z" fill="url(#paint1_linear_507_283)"/>
<path d="M127.495 148.412L114.287 138.713L119.238 119.507L136.661 137.455C137.278 138.113 137.307 139.127 136.729 139.818L129.85 148.072C129.27 148.77 128.252 148.918 127.495 148.412Z" fill="url(#paint2_linear_507_283)"/>
<path d="M67.2941 148.072L60.4143 139.818C59.8372 139.127 59.8657 138.113 60.4829 137.455L77.9053 119.507L82.8595 138.713L69.6512 148.412C68.8941 148.918 67.877 148.77 67.2941 148.072Z" fill="url(#paint3_linear_507_283)"/>
<path d="M120.001 121.456V174.426C120.001 175.997 118.716 177.283 117.144 177.283H80.0023C78.4309 177.283 77.1453 175.997 77.1453 174.426V121.456C77.1453 120.37 77.7738 119.37 78.7452 118.884L85.7451 115.456L85.9451 115.342L87.8593 114.427H109.287L111.402 115.456L118.401 118.884C119.373 119.37 120.001 120.37 120.001 121.456Z" fill="url(#paint4_linear_507_283)"/>
<path d="M111.402 115.456C110.859 121.713 105.402 126.656 98.6879 126.656C91.9737 126.656 86.431 121.656 85.9453 115.342L87.8596 114.427H109.288L111.402 115.456Z" fill="#1B5AB7"/>
<path d="M111.401 115.456L109.287 114.427H108.459C108.544 114.885 108.573 115.37 108.573 115.856C108.573 121.37 104.087 125.856 98.5732 125.856C93.059 125.856 88.5734 121.37 88.5734 115.856C88.5734 115.37 88.602 114.885 88.6877 114.427H87.8591L85.7449 115.456C85.7163 115.599 85.7163 115.713 85.7163 115.856C85.7163 122.941 91.4876 128.713 98.5732 128.713C105.659 128.713 111.43 122.941 111.43 115.856C111.43 115.713 111.43 115.599 111.401 115.456Z" fill="url(#paint5_linear_507_283)"/>
<defs>
<linearGradient id="paint0_linear_507_283" x1="127.144" y1="104.427" x2="170" y2="104.427" gradientUnits="userSpaceOnUse">
<stop stop-color="#3079D6"/>
<stop offset="1" stop-color="#297CD2"/>
</linearGradient>
<linearGradient id="paint1_linear_507_283" x1="157.143" y1="104.428" x2="165.715" y2="104.428" gradientUnits="userSpaceOnUse">
<stop stop-color="#3079D6"/>
<stop offset="1" stop-color="#297CD2"/>
</linearGradient>
<linearGradient id="paint2_linear_507_283" x1="143.106" y1="134.11" x2="109.442" y2="134.11" gradientUnits="userSpaceOnUse">
<stop stop-color="#2AA4F4"/>
<stop offset="0.301" stop-color="#239DEF"/>
<stop offset="0.749" stop-color="#0E88E2"/>
<stop offset="1" stop-color="#007AD9"/>
</linearGradient>
<linearGradient id="paint3_linear_507_283" x1="58.1401" y1="134.11" x2="89.8879" y2="134.11" gradientUnits="userSpaceOnUse">
<stop stop-color="#2AA4F4"/>
<stop offset="0.301" stop-color="#239DEF"/>
<stop offset="0.749" stop-color="#0E88E2"/>
<stop offset="1" stop-color="#007AD9"/>
</linearGradient>
<linearGradient id="paint4_linear_507_283" x1="77.1453" y1="145.855" x2="130.715" y2="145.855" gradientUnits="userSpaceOnUse">
<stop stop-color="#42A3F2"/>
<stop offset="1" stop-color="#42A4EB"/>
</linearGradient>
<linearGradient id="paint5_linear_507_283" x1="85.7163" y1="121.57" x2="111.43" y2="121.57" gradientUnits="userSpaceOnUse">
<stop stop-color="#3079D6"/>
<stop offset="1" stop-color="#297CD2"/>
</linearGradient>
</defs>
</svg>
